<svg xmlns="http://www.w3.org/2000/svg" viewBox="0 0 79.33 79.33"><defs><style>.cls-1{fill:#065dac;}.cls-2{fill:#fff;}.cls-3{fill:#dadddf;}</style></defs><title>FAV</title><g id="Layer_2" data-name="Layer 2"><g id="Layer_1-2" data-name="Layer 1"><rect id="_Rectangle_" data-name="&lt;Rectangle&gt;" class="cls-1" width="79.33" height="79.33" rx="10.27" ry="10.27"/><g id="_Group_" data-name="&lt;Group&gt;"><path id="_Compound_Path_" data-name="&lt;Compound Path&gt;" class="cls-2" d="M40.86,12.25h8.66a.41.41,0,0,1,.41.42v12a.41.41,0,0,0,.41.41H61.69a.41.41,0,0,0,.41-.41v-12a.42.42,0,0,1,.41-.42h8.66a.41.41,0,0,1,.41.42V46.06a.41.41,0,0,1-.41.41H62.51a.42.42,0,0,1-.41-.41V33.88a.41.41,0,0,0-.41-.41H50.34a.41.41,0,0,0-.41.41V46.06a.41.41,0,0,1-.41.41H40.86a.41.41,0,0,1-.41-.41V12.67A.41.41,0,0,1,40.86,12.25Z"/><path id="_Path_" data-name="&lt;Path&gt;" class="cls-2" d="M31.07,34.54A10.77,10.77,0,0,0,38.1,24v-.09a10.8,10.8,0,0,0-3-8c-2.29-2.3-5.86-3.67-11.14-3.67H9.14a.91.91,0,0,0-.81,1.33,14.32,14.32,0,0,0,4.27,4.85,35,35,0,0,0,6.71,3.63L19.05,20l-1-5.09a.12.12,0,0,1,.13-.15h.66a.41.41,0,0,1,.35.2,72.88,72.88,0,0,1,4.62,7.15c3,.1,5.39.46,5.39,1.27s-2.35,1.15-5.38,1.25c-.68,1.68-4.63,7.19-4.63,7.19a.42.42,0,0,1-.35.21h-.66a.13.13,0,0,1-.13-.16l1-5.09.27-2.17-.06-.05a34.2,34.2,0,0,0-6.66,3.6l-.11.09a11.85,11.85,0,0,0-4.74,9.53v7.94a.76.76,0,0,0,.75.75h8a.75.75,0,0,0,.75-.75V36.86a.75.75,0,0,1,.75-.75H21a.74.74,0,0,1,.63.33l6.45,9.69a.73.73,0,0,0,.62.34h9.08a.75.75,0,0,0,.62-1.17Z"/><path id="_Path_2" data-name="&lt;Path&gt;" class="cls-3" d="M12.6,18.43a35,35,0,0,0,6.71,3.63h0a37.79,37.79,0,0,1-4.18-6,18.63,18.63,0,0,1-1.58-3.81H9.14a.91.91,0,0,0-.81,1.33A14.32,14.32,0,0,0,12.6,18.43Z"/><path id="_Path_3" data-name="&lt;Path&gt;" class="cls-3" d="M13.62,33.81a10.23,10.23,0,0,1,4.08-8.22l.1-.07c.46-.34,1-.66,1.46-1h0a34.2,34.2,0,0,0-6.66,3.6l-.11.09a11.85,11.85,0,0,0-4.74,9.53v7.94a.76.76,0,0,0,.75.75h5.12Z"/></g><g id="_Group_2" data-name="&lt;Group&gt;"><path id="_Compound_Path_2" data-name="&lt;Compound Path&gt;" class="cls-2" d="M11.52,57.5H8a.2.2,0,0,1-.2-.2V55.67a.2.2,0,0,1,.2-.2h9.73a.2.2,0,0,1,.2.2V57.3a.2.2,0,0,1-.2.2H14.11a.2.2,0,0,0-.2.2v10a.2.2,0,0,1-.2.2H11.92a.2.2,0,0,1-.2-.2v-10A.2.2,0,0,0,11.52,57.5Z"/><path id="_Compound_Path_3" data-name="&lt;Compound Path&gt;" class="cls-2" d="M18.77,55.67a.2.2,0,0,1,.2-.2h5.36a5,5,0,0,1,3.59,1.24,3.81,3.81,0,0,1,1,2.69v0a3.69,3.69,0,0,1-2.69,3.69.2.2,0,0,0-.1.31l3,4.17a.21.21,0,0,1-.17.32h-2.1a.2.2,0,0,1-.17-.09l-2.94-4.17a.2.2,0,0,0-.16-.09H21.16a.2.2,0,0,0-.2.21v3.94a.2.2,0,0,1-.2.2H19a.2.2,0,0,1-.2-.2Zm5.4,6c1.56,0,2.56-.8,2.56-2.08v0c0-1.36-.94-2.07-2.58-2.07h-3a.2.2,0,0,0-.2.2v3.78a.2.2,0,0,0,.2.2Z"/><path id="_Compound_Path_4" data-name="&lt;Compound Path&gt;" class="cls-2" d="M35.52,55.47h1.76a.2.2,0,0,1,.18.12l5.27,12.06a.2.2,0,0,1-.18.28H40.69a.21.21,0,0,1-.19-.12l-1.15-2.75a.2.2,0,0,0-.18-.12H33.58a.2.2,0,0,0-.18.12l-1.17,2.75a.21.21,0,0,1-.19.12H30.25a.2.2,0,0,1-.18-.28l5.27-12.06A.2.2,0,0,1,35.52,55.47Zm2.86,7.27-1.83-4.25a.2.2,0,0,0-.37,0l-1.82,4.25a.2.2,0,0,0,.19.27H38.2A.19.19,0,0,0,38.38,62.74Z"/><path id="_Compound_Path_5" data-name="&lt;Compound Path&gt;" class="cls-2" d="M39.87,55.47h2a.21.21,0,0,1,.19.13l3.49,8.9a.2.2,0,0,0,.37,0l3.48-8.9a.19.19,0,0,1,.18-.13h1.92a.2.2,0,0,1,.19.27l-5,12.06a.19.19,0,0,1-.18.13H44.83a.19.19,0,0,1-.18-.13l-5-12.06A.19.19,0,0,1,39.87,55.47Z"/><path id="_Compound_Path_6" data-name="&lt;Compound Path&gt;" class="cls-2" d="M52.85,55.47h8.84a.2.2,0,0,1,.2.2v1.56a.2.2,0,0,1-.2.2H55a.2.2,0,0,0-.2.2v2.83a.2.2,0,0,0,.2.21h5.85a.2.2,0,0,1,.2.2v1.57a.2.2,0,0,1-.2.2H55a.2.2,0,0,0-.2.2v2.93a.2.2,0,0,0,.2.2h6.74a.2.2,0,0,1,.2.2v1.56a.2.2,0,0,1-.2.2H52.85a.2.2,0,0,1-.2-.2V55.67A.2.2,0,0,1,52.85,55.47Z"/><path id="_Compound_Path_7" data-name="&lt;Compound Path&gt;" class="cls-2" d="M63.05,55.47h1.78a.2.2,0,0,1,.2.2V65.73a.2.2,0,0,0,.2.2h6.15a.2.2,0,0,1,.2.21v1.59a.2.2,0,0,1-.2.2H63.05a.2.2,0,0,1-.21-.2V55.67A.2.2,0,0,1,63.05,55.47Z"/></g></g></g></svg>